<mxfile host="Electron" modified="2024-01-19T14:01:08.004Z" agent="Mozilla/5.0 (Macintosh; Intel Mac OS X 10_15_7) AppleWebKit/537.36 (KHTML, like Gecko) draw.io/22.1.21 Chrome/120.0.6099.109 Electron/28.1.0 Safari/537.36" etag="Qz2GPOVN-qau-buP0AHY" version="22.1.21" type="device">
  <diagram name="第 1 页" id="OYuebWuwv2_rnE3YtoPc">
    <mxGraphModel dx="2417" dy="1212" grid="1" gridSize="10" guides="1" tooltips="1" connect="1" arrows="1" fold="1" page="1" pageScale="1" pageWidth="827" pageHeight="1169" math="0" shadow="0">
      <root>
        <mxCell id="0" />
        <mxCell id="1" parent="0" />
        <mxCell id="vbtIZ0E4-xXG5UV_2vFf-2" value="" style="rounded=0;whiteSpace=wrap;strokeWidth=2;fontColor=#FF0000;strokeColor=#FF0000;html=1;labelBackgroundColor=none;" vertex="1" parent="1">
          <mxGeometry x="-548.825" y="70" width="132" height="50" as="geometry" />
        </mxCell>
        <mxCell id="vbtIZ0E4-xXG5UV_2vFf-6" value="&lt;span style=&quot;color: rgb(255, 0, 0); font-family: &amp;quot;Concert One&amp;quot;; font-size: 30px; font-style: normal; font-variant-ligatures: normal; font-variant-caps: normal; font-weight: 400; letter-spacing: normal; orphans: 2; text-align: center; text-indent: 0px; text-transform: none; widows: 2; word-spacing: 0px; -webkit-text-stroke-width: 0px; background-color: rgb(251, 251, 251); text-decoration-thickness: initial; text-decoration-style: initial; text-decoration-color: initial; float: none; display: inline !important;&quot;&gt;Hello langchain&lt;/span&gt;" style="text;whiteSpace=wrap;html=1;fontSize=20;fontFamily=Architects Daughter;" vertex="1" parent="1">
          <mxGeometry x="-630" y="70" width="250" height="41.5" as="geometry" />
        </mxCell>
      </root>
    </mxGraphModel>
  </diagram>
</mxfile>
